<?xml version="1.0" encoding="UTF-8" standalone="no"?>
<svg
   aria-hidden="true"
   viewBox="0 0 92 92"
   fill="none"
   version="1.1"
   id="svg914"
   sodipodi:docname="rodburger.svg"
   inkscape:version="1.1.2 (0a00cf5339, 2022-02-04)"
   width="92"
   height="92"
   xmlns:inkscape="http://www.inkscape.org/namespaces/inkscape"
   xmlns:sodipodi="http://sodipodi.sourceforge.net/DTD/sodipodi-0.dtd"
   xmlns="http://www.w3.org/2000/svg"
   xmlns:svg="http://www.w3.org/2000/svg"
   xmlns:rdf="http://www.w3.org/1999/02/22-rdf-syntax-ns#"
   xmlns:cc="http://creativecommons.org/ns#"
   xmlns:dc="http://purl.org/dc/elements/1.1/">
  <defs
     id="defs918" />
  <sodipodi:namedview
     id="namedview916"
     pagecolor="#ffffff"
     bordercolor="#666666"
     borderopacity="1.0"
     inkscape:pageshadow="2"
     inkscape:pageopacity="0.0"
     inkscape:pagecheckerboard="0"
     showgrid="false"
     inkscape:zoom="8.7916667"
     inkscape:cx="45.952607"
     inkscape:cy="48"
     inkscape:window-width="2560"
     inkscape:window-height="1053"
     inkscape:window-x="1366"
     inkscape:window-y="27"
     inkscape:window-maximized="0"
     inkscape:current-layer="g45044"
     height="92px" />
  <title
     id="title888">Burger King Logo</title>
  <metadata
     id="metadata1000">
    <rdf:RDF>
      <cc:Work
         rdf:about="">
        <dc:title>Burger King Logo</dc:title>
      </cc:Work>
    </rdf:RDF>
  </metadata>
  <text
     xml:space="preserve"
     style="font-size:16px;line-height:1.25;font-family:Chango;-inkscape-font-specification:Chango;letter-spacing:0px;word-spacing:0px"
     x="117.58429"
     y="-32.248474"
     id="text23593"><tspan
       sodipodi:role="line"
       id="tspan23591"
       x="117.58429"
       y="-32.248474" /></text>
  <g
     id="g45044"
     transform="scale(1.2669316,1.2613376)">
    <rect
       style="fill:#ffffff;stroke-width:0.836351;stroke-linecap:round;stroke-linejoin:round"
       id="rect45419"
       width="72.616394"
       height="72.938446"
       x="0"
       y="0"
       ry="0"
       inkscape:export-filename="/home/rodrigo/dev/github/rodgco/rodburger/static/apple-touch-icon-192x192.png"
       inkscape:export-xdpi="200.34781"
       inkscape:export-ydpi="200.34781" />
    <g
       id="g45395"
       transform="matrix(0.89130436,0,0,0.89130436,3.9465428,6.7905829)"
       inkscape:export-filename="/home/rodrigo/dev/github/rodgco/rodburger/static/apple-touch-icon-192x192.png"
       inkscape:export-xdpi="200.34781"
       inkscape:export-ydpi="200.34781">
      <path
         d="M 70.65809,22.5478 H 1.9569903 C 0.60649029,22.5478 0,21.8499 0,20.5937 0,13.1469 11.20949,0 36.30819,0 c 24.8662,0 36.3082,13.1469 36.3082,20.5937 0,1.2562 -0.6065,1.9541 -1.9583,1.9541 z"
         id="path35695"
         style="fill:#ff7f2a" />
      <path
         d="m 67.13989,62.198268 c -6.0587,3.42 -16.4529,4.3977 -30.8311,4.3977 -14.3782,0 -24.7723,-0.9777 -30.8309997,-4.3977 -3.6365,-2.0478 -5.4771904,-4.8397 -5.4771904,-6.8413 0,-1.14 0.60649039,-1.7917 1.9569904,-1.7917 H 70.65869 c 1.3518,0 1.9571,0.6517 1.9571,1.7917 0.0012,2.0016 -1.8395,4.7935 -5.4759,6.8413 z"
         id="path890"
         style="fill:#ff7f2a" />
      <g
         aria-label="ROD"
         id="text3299"
         style="font-size:24px;line-height:1.25;font-family:Chango;-inkscape-font-specification:Chango;letter-spacing:0px;word-spacing:0px;fill:#000000">
        <path
           d="m 13.112216,28.487843 0.048,4.44 q 0,0.456 0.504,0.456 1.488,0 2.328,-0.816 0.864,-0.84 0.864,-1.968 0,-1.128 -0.816,-1.944 -0.792,-0.816 -2.352,-0.816 -0.576,0 -0.576,0.648 z m 6.288,7.176 q 0.456,0.48 3.24,3.624 0.168,0.216 0.168,0.384 0,0.624 -0.552,0.624 -1.272,0.024 -2.568,0.024 -1.272,0 -2.544,-0.024 -0.696,0 -1.272,-0.552 l -2.064,-3.12 q -0.12,-0.144 -0.288,-0.192 -0.384,-0.144 -0.384,0.312 v 2.448 q 0,1.032 -1.368,1.104 -1.344,0.072 -2.9519998,0.072 -1.608,0 -3.888,-0.12 -0.696,-0.048 -1.128,-0.48 -0.408,-0.432 -0.48,-0.984 -0.192,-2.112 -0.192,-6.624 0,-4.536 0.144,-6.6 0.144,-2.064 2.088,-2.088 1.824,-0.024 4.9679998,-0.024 3.144,0 5.208,0.048 2.976,0.048 4.872,2.208 1.896,2.16 1.896,4.872 0,1.584 -0.744,2.928 -0.72,1.344 -2.16,2.16 z"
           style="fill:#784421"
           id="path45113" />
        <path
           d="m 36.776192,40.751843 q -2.904,0 -5.256,-0.744 -2.352,-0.768 -3.816,-2.04 -1.464,-1.272 -2.232,-2.832 -0.768,-1.584 -0.768,-3.288 0,-1.704 0.768,-3.264 0.792,-1.584 2.232,-2.856 1.464,-1.272 3.816,-2.04 2.352,-0.768 5.16,-0.768 2.808,0 4.968,0.696 2.16,0.696 3.48,1.896 2.688,2.448 2.688,5.808 0,1.704 -0.744,3.336 -0.72,1.632 -2.088,2.976 -1.344,1.32 -3.48,2.184 -2.136,0.84 -4.728,0.936 z m 4.752,-9.312 q 0,-1.152 -0.816,-1.992 -0.816,-0.864 -2.496,-0.864 -1.656,0 -2.64,0.888 -0.984,0.888 -0.984,2.16 0,1.272 1.032,2.04 1.032,0.768 2.472,0.768 1.464,0 2.448,-0.936 0.984,-0.936 0.984,-2.064 z"
           style="fill:#784421"
           id="path45115" />
        <path
           d="m 61.256175,40.223843 q -1.608,0.144 -4.608,0.144 -3,0 -4.104,-0.096 -1.08,-0.072 -1.632,-0.384 -0.552,-0.312 -0.6,-0.984 -0.144,-2.592 -0.144,-5.904 0,-3.336 0.096,-7.056 0.048,-2.304 2.136,-2.448 1.464,-0.096 4.488,-0.096 3.024,0 4.728,0.096 1.728,0.072 3.312,0.792 1.608,0.696 2.568,1.824 1.992,2.328 1.992,5.4 0,3.24 -2.088,5.784 -1.008,1.224 -2.616,2.016 -1.584,0.792 -3.528,0.912 z m -1.08,-11.568 v 5.808 q 0,0.192 0.144,0.36 0.144,0.168 0.384,0.168 1.536,0 2.352,-1.056 0.84,-1.056 0.84,-2.496 0,-1.44 -0.768,-2.496 -0.744,-1.08 -2.016,-1.08 -0.312,0 -0.48,0.024 -0.456,0.12 -0.456,0.768 z"
           style="fill:#784421"
           id="path45117" />
      </g>
      <g
         aria-label="BURGER"
         transform="scale(0.86625124,1.1543995)"
         id="text27073"
         style="font-size:13.7748px;line-height:1.25;font-family:Chango;-inkscape-font-specification:Chango;letter-spacing:0px;word-spacing:0px;fill:#784421;stroke-width:0.860925">
        <path
           d="m 10.900235,41.99489 -0.01378,1.790724 q 0,0.123973 0.08265,0.220397 0.08265,0.08265 0.220397,0.08265 0.840263,0 1.37748,-0.330596 0.550992,-0.330595 0.550992,-1.03311 0,-0.716289 -0.564767,-0.991785 -0.454568,-0.220397 -0.991786,-0.220397 -0.137748,0 -0.275496,0.01378 -0.385694,0.02755 -0.385694,0.468343 z m -0.01378,-3.78807 0.01378,1.129534 q 0,0.261721 0.31682,0.261721 1.391255,0 1.391255,-0.785164 0,-0.909137 -1.239732,-0.909137 -0.08265,0 -0.151523,0 -0.330595,0 -0.330595,0.303046 z M 6.3821004,36.360997 q 1.7080752,-0.0551 4.2701876,-0.0551 2.562113,0 3.540124,0.0551 0.991786,0.04132 1.7494,0.757614 0.757614,0.716289 0.757614,1.652976 0,1.143308 -0.991786,1.680525 -0.09642,0.0551 -0.09642,0.137748 0,0.06887 0.09642,0.09642 0.71629,0.192847 1.198408,0.826488 0.495893,0.633641 0.495893,1.501453 0,1.088209 -0.840263,1.969797 -0.840263,0.881587 -2.575888,0.964236 -1.735625,0.06887 -2.507013,0.06887 -0.771389,0 -5.1517758,-0.04132 -0.3994692,0 -0.6474156,-0.247946 Q 5.4316392,45.46614 5.3903148,45.135544 5.2801164,43.923362 5.2801164,41.609196 q 0,-2.327942 0.096424,-3.967143 0.041324,-0.674965 0.2341716,-0.964236 0.1928472,-0.303046 0.7713884,-0.31682 z"
           id="path45157" />
        <path
           d="m 24.09648,37.793576 -0.02755,1.253507 v 2.658536 q 0,0.578542 0.358144,0.895362 0.358145,0.316821 0.840263,0.316821 0.482118,0 0.826488,-0.316821 0.358145,-0.31682 0.358145,-0.895362 v -4.10489 q 0,-0.647416 0.165298,-0.950462 0.179072,-0.303045 0.757614,-0.303045 h 1.267281 q 0.440794,0 0.606092,0.261721 0.31682,0.468343 0.31682,3.622773 0,1.03311 -0.02755,1.584102 -0.04132,1.115758 -0.523442,1.997346 -0.468343,0.867812 -1.212182,1.391254 -1.501454,1.06066 -3.402376,1.06066 -2.507014,0 -4.146215,-1.170858 -0.826488,-0.592316 -1.308606,-1.570327 -0.468343,-0.991786 -0.482118,-2.300392 -0.01377,-0.647415 -0.01377,-1.900922 0,-1.267282 0.02755,-1.818274 0.04132,-0.564767 0.220397,-0.854038 0.192847,-0.303045 0.757614,-0.303045 h 3.677871 q 0.550992,0 0.730065,0.289271 0.234171,0.371919 0.234171,1.157083 z"
           id="path45159" />
        <path
           d="m 36.61775,39.226155 0.02755,2.548338 q 0,0.261721 0.289271,0.261721 0.854037,0 1.336155,-0.468343 0.495893,-0.482118 0.495893,-1.129533 0,-0.647416 -0.468343,-1.115759 -0.454569,-0.468343 -1.349931,-0.468343 -0.330595,0 -0.330595,0.371919 z m 3.608998,4.118665 q 0.261721,0.275496 1.859598,2.079995 0.09642,0.123973 0.09642,0.220397 0,0.358145 -0.316821,0.358145 -0.730064,0.01377 -1.473903,0.01377 -0.730065,0 -1.460129,-0.01377 -0.399469,0 -0.730065,-0.316821 l -1.184633,-1.790724 q -0.06887,-0.08265 -0.165297,-0.110198 -0.220397,-0.08265 -0.220397,0.179072 v 1.40503 q 0,0.592316 -0.785164,0.633641 -0.771388,0.04132 -1.6943,0.04132 -0.922912,0 -2.231518,-0.06887 -0.399469,-0.02755 -0.647415,-0.275496 -0.234172,-0.247946 -0.275496,-0.564767 -0.110199,-1.212182 -0.110199,-3.801844 0,-2.603438 0.08265,-3.788071 0.08265,-1.184632 1.198408,-1.198407 1.046885,-0.01378 2.851383,-0.01378 1.804499,0 2.989132,0.02755 1.708075,0.02755 2.796285,1.267281 1.088209,1.239732 1.088209,2.796285 0,0.909137 -0.427019,1.680525 -0.413244,0.771389 -1.239732,1.239732 z"
           id="path45161" />
        <path
           d="m 51.411873,38.57874 q -1.239732,0 -1.7494,0.647415 -0.495892,0.633641 -0.495892,2.024896 0,2.190193 1.281056,2.190193 0.261721,0 0.34437,-0.01377 -0.165298,0 -0.275496,-0.578541 -0.09642,-0.578542 -0.09642,-1.212183 0,-0.633641 0.34437,-0.812713 0.34437,-0.192847 0.950462,-0.192847 0.619866,0 0.854037,0.01377 0.247947,0 0.550992,0.0551 0.316821,0.04132 0.482118,0.137748 0.385695,0.220397 0.385695,0.66119 v 2.011121 q 0,1.074434 -0.385695,1.72185 -0.385694,0.633641 -1.446354,0.743839 -1.487678,0.151523 -4.545684,0.151523 -1.225957,0 -2.107544,-0.385694 -0.867813,-0.385695 -1.349931,-1.074435 -0.881587,-1.281056 -0.881587,-3.250853 0,-1.983571 1.267282,-3.526349 1.267281,-1.542777 3.374826,-1.652976 1.446354,-0.08265 2.093769,-0.08265 2.355491,0 3.347277,0.28927 0.674965,0.192848 0.674965,1.08821 0,1.198407 -0.702515,1.198407 -0.220397,-0.01377 -0.881587,-0.08265 -0.66119,-0.06887 -1.03311,-0.06887 z"
           id="path45163" />
        <path
           d="m 56.701375,45.989582 q -0.385694,0 -0.66119,-0.247946 -0.261721,-0.261722 -0.34437,-0.840263 -0.06887,-0.592317 -0.06887,-3.512574 0,-2.934033 0.09642,-3.829395 0.110198,-1.157083 0.97801,-1.184633 0.991786,-0.02755 8.223556,-0.02755 0.812713,0 0.812713,1.03311 0,0.812713 -0.716289,0.812713 h -3.030456 q -0.289271,0 -0.468343,0.192847 -0.165298,0.192848 -0.165298,0.495893 v 0.991786 q 0,0.413244 0.37192,0.413244 h 2.507013 q 0.220397,0 0.330595,0.04132 0.123974,0.04133 0.220397,0.247947 0.09642,0.192847 0.09642,0.647415 0,0.454569 -0.165298,0.606091 -0.151523,0.151523 -0.509667,0.151523 h -2.245293 q -0.34437,0 -0.482118,0.179073 -0.123973,0.165297 -0.123973,0.523442 v 0.674965 q 0,0.592317 0.564767,0.592317 h 3.429925 q 0.247946,0 0.440794,0.151522 0.192847,0.137748 0.192847,0.633641 0,0.482118 -0.234172,0.867813 -0.234171,0.385694 -0.550992,0.385694 z"
           id="path45165" />
        <path
           d="m 72.983189,39.226155 0.02755,2.548338 q 0,0.261721 0.289271,0.261721 0.854038,0 1.336156,-0.468343 0.495893,-0.482118 0.495893,-1.129533 0,-0.647416 -0.468344,-1.115759 -0.454568,-0.468343 -1.34993,-0.468343 -0.330595,0 -0.330596,0.371919 z m 3.608997,4.118665 q 0.261722,0.275496 1.859598,2.079995 0.09642,0.123973 0.09642,0.220397 0,0.358145 -0.31682,0.358145 -0.730065,0.01377 -1.473904,0.01377 -0.730064,0 -1.460129,-0.01377 -0.399469,0 -0.730064,-0.316821 l -1.184633,-1.790724 q -0.06887,-0.08265 -0.165298,-0.110198 -0.220396,-0.08265 -0.220396,0.179072 v 1.40503 q 0,0.592316 -0.785164,0.633641 -0.771389,0.04132 -1.694301,0.04132 -0.922911,0 -2.231517,-0.06887 -0.399469,-0.02755 -0.647416,-0.275496 -0.234171,-0.247946 -0.275496,-0.564767 -0.110198,-1.212182 -0.110198,-3.801844 0,-2.603438 0.08265,-3.788071 0.08265,-1.184632 1.198407,-1.198407 1.046885,-0.01378 2.851384,-0.01378 1.804499,0 2.989132,0.02755 1.708075,0.02755 2.796284,1.267281 1.088209,1.239732 1.088209,2.796285 0,0.909137 -0.427019,1.680525 -0.413244,0.771389 -1.239732,1.239732 z"
           id="path45167" />
      </g>
    </g>
  </g>
</svg>
